<svg width="56" height="56" viewBox="0 0 56 56" fill="none" xmlns="http://www.w3.org/2000/svg">
<g clip-path="url(#clip0_35_14711)">
<path d="M46.6667 0H9.33333C4.17868 0 0 4.17868 0 9.33333V46.6667C0 51.8213 4.17868 56 9.33333 56H46.6667C51.8213 56 56 51.8213 56 46.6667V9.33333C56 4.17868 51.8213 0 46.6667 0Z" fill="url(#paint0_linear_35_14711)"/>
<path d="M46.6667 0H9.33333C4.17868 0 0 4.17868 0 9.33333V46.6667C0 51.8213 4.17868 56 9.33333 56H46.6667C51.8213 56 56 51.8213 56 46.6667V9.33333C56 4.17868 51.8213 0 46.6667 0Z" fill="url(#paint1_linear_35_14711)"/>
<path d="M8.6665 28H13.3332L15.6665 21L17.9998 35L20.3332 28H23.8332" stroke="white" stroke-width="2.91667" stroke-linecap="round" stroke-linejoin="round"/>
<path d="M23.8335 28H27.3335V32.6667" stroke="white" stroke-width="2.91667" stroke-linecap="round" stroke-linejoin="round"/>
<path opacity="0.85" d="M27.3335 32.666V39.666" stroke="white" stroke-width="4.66667" stroke-linecap="round"/>
<path opacity="0.92" d="M35.5 25.666V39.666" stroke="white" stroke-width="4.66667" stroke-linecap="round"/>
<path d="M43.6665 16.334V39.6673" stroke="white" stroke-width="4.66667" stroke-linecap="round"/>
<path opacity="0.85" d="M27.3333 35.0007C28.622 35.0007 29.6667 33.956 29.6667 32.6673C29.6667 31.3787 28.622 30.334 27.3333 30.334C26.0447 30.334 25 31.3787 25 32.6673C25 33.956 26.0447 35.0007 27.3333 35.0007Z" fill="white"/>
<path opacity="0.92" d="M35.4998 28.0007C36.7885 28.0007 37.8332 26.956 37.8332 25.6673C37.8332 24.3787 36.7885 23.334 35.4998 23.334C34.2112 23.334 33.1665 24.3787 33.1665 25.6673C33.1665 26.956 34.2112 28.0007 35.4998 28.0007Z" fill="white"/>
<path d="M43.6668 18.6667C44.9555 18.6667 46.0002 17.622 46.0002 16.3333C46.0002 15.0447 44.9555 14 43.6668 14C42.3782 14 41.3335 15.0447 41.3335 16.3333C41.3335 17.622 42.3782 18.6667 43.6668 18.6667Z" fill="white"/>
</g>
<defs>
<linearGradient id="paint0_linear_35_14711" x1="0" y1="0" x2="56" y2="56" gradientUnits="userSpaceOnUse">
<stop stop-color="#2DD4BF"/>
<stop offset="0.5" stop-color="#06B6D4"/>
<stop offset="1" stop-color="#3B82F6"/>
</linearGradient>
<linearGradient id="paint1_linear_35_14711" x1="28" y1="0" x2="28" y2="56" gradientUnits="userSpaceOnUse">
<stop stop-opacity="0"/>
<stop offset="1" stop-opacity="0.1"/>
</linearGradient>
<clipPath id="clip0_35_14711">
<rect width="56" height="56" fill="white"/>
</clipPath>
</defs>
</svg>
